<?xml version="1.0" encoding="utf-8"?>
<svg xmlns="http://www.w3.org/2000/svg" viewBox="157.28 368.9838 765.4401 393.9262" width="765.44px" height="393.926px" xmlns:bx="https://boxy-svg.com" preserveAspectRatio="none"><defs><linearGradient id="color-0" bx:pinned="true" gradientUnits="userSpaceOnUse"><stop style="stop-color: rgb(202, 254, 60);"/></linearGradient><style>
      .cls-1 {
        fill: #1d1d1b;
      }
    </style></defs><g id="object-0"><path class="cls-1" d="M493.75,543.45l-.63,3.52c-1.64-.29-3.68-.69-6.01-1.24-.08-.02-.15-.04-.23-.06-13.56-3.2-36.83-11.2-50.65-30.06-.08-.11-.16-.21-.23-.32-6.33-8.74-10.63-19.79-11.03-33.73-1.57-54.07-14.29-82.26-43.9-97.28-35.08-17.79-86.61-14.3-114.87,7.8-18.33,14.33-25.71,49.97-22.25,76.16,2.92,22.06,15.93,40.16,34.82,48.43,16.74,7.32,40.86,8.93,58.66,3.91,18.41-5.2,33.46-17.36,36.6-29.58,4.62-17.94,1.97-38.12-6.73-51.4-7.79-11.88-24.39-17.65-37.4-18.1-12.87-.44-21.61,4.37-29.25,16.09-3.31,5.07-3.98,10.9-3.55,16.16,1.1-3.29,3.11-6.67,6.54-9.74,12.33-11.04,28.29-6.38,34.57-3.87,10.28,4.11,22.39,18.71,13.63,42.06-3.28,8.75-9.7,15.19-18.56,18.61-12.78,4.94-30.33,3.36-44.72-4.03-22.21-11.41-23.2-34.56-21.58-53.45,1.07-12.52,4.96-22.23,11.9-29.69,9.94-10.7,26.1-16.46,48.03-17.14,22.47-.69,40.52,4.77,53.65,16.23,12.81,11.18,16.76,24.61,17.87,29.86,3.75,17.81,8.41,39.98-4.63,69.71-8.11,18.8-29.39,32.2-58.38,36.78-6.94,1.09-14.12,1.63-21.37,1.63-13.24,0-26.69-1.81-39.29-5.36-20.58-5.81-37.83-15.86-50.02-29.12-.71-.77-.63-1.97,.16-2.66h0c.87-.77,2.19-.68,2.98,.17,11.69,12.61,28.22,22.19,47.97,27.76,18.95,5.34,39.88,6.63,58.95,3.62,27.6-4.35,47.77-16.89,55.33-34.41,12.54-28.57,8.01-50.05,4.38-67.3-1.57-7.46-12.21-44.63-67.48-42.91-35.33,1.09-53.67,15.21-56.07,43.17-2.27,26.57,3.53,41.39,19.42,49.55,13.42,6.89,29.69,8.41,41.45,3.86,7.89-3.04,13.36-8.52,16.27-16.28,8.35-22.28-3.79-33.91-11.37-36.94-5.6-2.24-19.76-6.42-30.43,3.13-10.34,9.26-5.21,21.7-4.99,22.22,.42,.99-.02,2.14-1,2.6-.97,.46-2.13,.06-2.62-.9-.42-.83-10.2-20.47-.4-35.5,8.4-12.88,18.5-18.39,32.75-17.91,14.04,.49,32.04,6.83,40.6,19.9,9.3,14.19,12.15,35.62,7.27,54.6-3.48,13.53-19.68,26.86-39.4,32.42-18.61,5.26-43.83,3.57-61.34-4.09-20.18-8.83-34.08-28.11-37.18-51.57-1.78-13.42-.75-29.17,2.81-43.21,2.92-11.53,8.93-27.23,20.94-36.63,29.36-22.95,82.8-26.63,119.13-8.2,16.81,8.52,28.54,21.49,35.88,39.65,6.21,15.35,9.45,34.76,10.22,61.07,.39,13.34,4.62,23.86,10.83,32.16,0,.01,.01,.02,.03,.03,12.63,16.9,33.43,24.52,46.46,27.79,.01,0,.02,.01,.04,.01l7.42,2.02Z" style="fill: url(&quot;#color-0&quot;);"/><path class="cls-1" d="M853.46,483c-.8,0-1.47-.63-1.49-1.43,0,0,0,0,0-.01-1.57-54.07-14.29-82.26-43.9-97.28-35.08-17.79-86.61-14.3-114.87,7.8-18.33,14.33-25.71,49.97-22.25,76.16,2.92,22.06,15.93,40.16,34.82,48.43,16.74,7.32,40.86,8.93,58.66,3.91,18.41-5.2,33.46-17.36,36.6-29.58,4.62-17.94,1.97-38.12-6.73-51.4-7.79-11.88-24.39-17.65-37.4-18.1-12.87-.44-21.61,4.37-29.25,16.09-3.31,5.07-3.98,10.9-3.55,16.16,1.1-3.29,3.11-6.67,6.54-9.74,12.33-11.04,28.29-6.38,34.57-3.87,10.28,4.11,22.39,18.71,13.63,42.06-3.28,8.75-9.7,15.19-18.56,18.61-12.78,4.94-30.33,3.36-44.72-4.03-22.21-11.41-23.2-34.56-21.58-53.45,1.07-12.52,4.96-22.23,11.9-29.69,9.94-10.7,26.1-16.46,48.03-17.14,22.47-.69,40.52,4.77,53.65,16.23,12.81,11.18,16.76,24.61,17.87,29.86,3.75,17.81,8.41,39.98-4.63,69.71-8.11,18.8-29.39,32.2-58.38,36.78-6.94,1.09-14.12,1.63-21.37,1.63-13.24,0-26.69-1.81-39.29-5.36-7.29-2.06-14.16-4.65-20.54-7.72-.03-.01-.06-.02-.09-.04-12.22-5.91-22.62-13.61-30.66-22.77l2.57-2.26c7.63,9.06,17.81,15.61,27.42,20.22,6.85,3.53,14.36,6.45,22.39,8.72,2.09,.59,4.21,1.13,6.35,1.61,17.2,3.96,35.64,4.69,52.6,2.01,27.6-4.35,47.77-16.89,55.33-34.41,12.54-28.57,8.01-50.05,4.38-67.3-1.57-7.46-12.21-44.63-67.48-42.91-35.33,1.09-53.67,15.21-56.07,43.17-2.27,26.57,3.53,41.39,19.42,49.55,13.42,6.89,29.69,8.41,41.45,3.86,7.89-3.04,13.36-8.52,16.27-16.28,8.35-22.28-3.79-33.91-11.37-36.94-5.6-2.24-19.76-6.42-30.43,3.13-10.34,9.26-5.21,21.7-4.99,22.22,.42,.99-.02,2.14-1,2.6-.97,.46-2.13,.06-2.62-.9-.42-.83-10.2-20.47-.4-35.5,8.4-12.88,18.5-18.39,32.75-17.91,14.04,.49,32.04,6.83,40.6,19.9,9.3,14.19,12.15,35.62,7.27,54.6-3.48,13.53-19.68,26.86-39.4,32.42-18.61,5.26-43.83,3.57-61.34-4.09-20.18-8.83-34.08-28.11-37.18-51.57-1.78-13.42-.75-29.17,2.81-43.21,2.92-11.53,8.93-27.23,20.94-36.63,29.36-22.95,82.8-26.63,119.13-8.2,16.81,8.52,28.54,21.49,35.88,39.65,6.21,15.35,9.45,34.76,10.22,61.07,0,0,0,.01,0,.02,.03,.84-.64,1.54-1.48,1.54h-1.03Z" style="fill: url(&quot;#color-0&quot;);"/><path class="cls-1" d="M709.2,543.11l-.6,3.36c-.64-.11-13.03-2.36-27.38-8.84-.03-.01-.06-.02-.09-.04-3.53-1.6-7.19-3.45-10.81-5.6-21.17-12.54-32.71-29.97-33.37-50.43-2.16-67.01-22.38-86.36-43.9-97.28-35.08-17.79-86.61-14.3-114.87,7.8-18.33,14.33-25.71,49.97-22.25,76.16,2.92,22.06,15.93,40.16,34.82,48.43,16.74,7.32,40.86,8.93,58.66,3.91,18.41-5.2,33.46-17.36,36.6-29.58,4.62-17.94,1.97-38.12-6.73-51.4-7.79-11.88-24.39-17.65-37.4-18.1-12.87-.44-21.61,4.37-29.25,16.09-3.31,5.07-3.98,10.9-3.55,16.16,1.1-3.29,3.11-6.67,6.54-9.74,12.33-11.04,28.29-6.38,34.57-3.87,10.28,4.11,22.39,18.71,13.63,42.06-3.28,8.75-9.7,15.19-18.56,18.61-12.78,4.94-30.33,3.36-44.72-4.03-22.21-11.41-23.2-34.56-21.58-53.45,1.07-12.52,4.96-22.23,11.9-29.69,9.94-10.7,26.1-16.46,48.03-17.14,22.47-.69,40.52,4.77,53.65,16.23,12.81,11.18,16.76,24.61,17.87,29.86,3.75,17.81,8.41,39.98-4.63,69.71-8.17,18.94-29.58,32.44-58.72,37.04-6.92,1.09-14.07,1.63-21.28,1.63-13.05,0-26.29-1.77-38.69-5.24-.08-.02-.15-.04-.23-.06-20.96-5.92-38.47-16.3-50.65-30.06-.09-.09-.17-.19-.26-.29l.03-.03,2.97-2.61c.27,.31,.54,.61,.83,.92,0,.01,.01,.02,.03,.03,12.63,16.9,33.43,24.52,46.46,27.79,.01,0,.02,.01,.04,.01,2.42,.74,4.89,1.42,7.42,2.02,15.83,3.81,33.7,4.94,52.71,1.94,27.76-4.38,48.05-17.02,55.67-34.68,12.54-28.57,8.01-50.05,4.38-67.3-1.57-7.46-12.21-44.62-67.48-42.91-35.33,1.09-53.67,15.21-56.07,43.17-2.27,26.57,3.53,41.39,19.42,49.55,13.42,6.89,29.69,8.41,41.45,3.86,7.89-3.04,13.36-8.52,16.27-16.28,8.35-22.28-3.79-33.91-11.37-36.94-5.6-2.24-19.76-6.42-30.43,3.13-10.34,9.26-5.21,21.7-4.99,22.22,.42,.99-.02,2.14-1,2.6-.97,.46-2.13,.06-2.62-.9-.42-.83-10.2-20.47-.4-35.5,8.4-12.88,18.5-18.39,32.75-17.91,14.04,.49,32.03,6.83,40.6,19.9,9.3,14.19,12.15,35.62,7.27,54.6-3.48,13.53-19.68,26.86-39.4,32.42-18.61,5.26-43.83,3.57-61.34-4.09-20.18-8.83-34.08-28.11-37.18-51.57-1.78-13.42-.75-29.17,2.81-43.21,2.92-11.53,8.93-27.23,20.94-36.63,29.36-22.95,82.8-26.63,119.13-8.2,38.29,19.41,44.78,59.88,46.1,100.72,.41,12.72,5.2,22.94,12.09,31.12,7.63,9.06,17.81,15.61,27.42,20.22,6.85,3.53,14.36,6.45,22.39,8.72,2.09,.59,4.21,1.13,6.35,1.61Z" style="fill: url(&quot;#color-0&quot;);"/><path class="cls-1" d="M157.28,658.96l14.71-69.66h6.88l14.79,69.66h-6.45l-3.44-18.66h-16.6l-3.53,18.66h-6.36Zm10.84-23.39h14.79l-7.4-37.58-7.4,37.58Z" style="fill: url(&quot;#color-0&quot;);"/><path class="cls-1" d="M218.26,659.82c-4.7,0-8.33-.97-10.88-2.92-2.55-1.95-4.31-4.57-5.29-7.87-.98-3.3-1.46-6.95-1.46-10.97v-27.69c0-4.3,.5-8.08,1.5-11.35,1-3.27,2.79-5.82,5.38-7.65s6.16-2.75,10.75-2.75c4.18,0,7.47,.8,9.85,2.41,2.38,1.61,4.08,3.88,5.12,6.84,1.03,2.95,1.55,6.46,1.55,10.53v4.21h-6.19v-4.04c0-3.04-.24-5.65-.73-7.83-.49-2.18-1.48-3.87-2.97-5.07-1.49-1.2-3.67-1.81-6.54-1.81-3.15,0-5.52,.64-7.09,1.93-1.58,1.29-2.64,3.11-3.18,5.46-.55,2.35-.82,5.07-.82,8.17v29.67c0,3.44,.33,6.31,.99,8.6,.66,2.29,1.79,4.01,3.4,5.16,1.6,1.15,3.84,1.72,6.71,1.72s5.12-.63,6.58-1.89c1.46-1.26,2.44-3.02,2.92-5.29,.49-2.26,.73-4.92,.73-7.96v-4.56h6.19v4.13c0,4.07-.47,7.67-1.42,10.79-.95,3.13-2.61,5.58-4.99,7.35-2.38,1.78-5.75,2.67-10.1,2.67Z" style="fill: url(&quot;#color-0&quot;);"/><path class="cls-1" d="M261.17,659.82c-4.7,0-8.33-.97-10.88-2.92-2.55-1.95-4.31-4.57-5.29-7.87-.98-3.3-1.46-6.95-1.46-10.97v-27.69c0-4.3,.5-8.08,1.5-11.35,1-3.27,2.79-5.82,5.38-7.65s6.16-2.75,10.75-2.75c4.18,0,7.47,.8,9.85,2.41,2.38,1.61,4.08,3.88,5.12,6.84,1.03,2.95,1.55,6.46,1.55,10.53v4.21h-6.19v-4.04c0-3.04-.24-5.65-.73-7.83-.49-2.18-1.48-3.87-2.97-5.07-1.49-1.2-3.67-1.81-6.54-1.81-3.15,0-5.52,.64-7.09,1.93-1.58,1.29-2.64,3.11-3.18,5.46-.55,2.35-.82,5.07-.82,8.17v29.67c0,3.44,.33,6.31,.99,8.6,.66,2.29,1.79,4.01,3.4,5.16,1.6,1.15,3.84,1.72,6.71,1.72s5.12-.63,6.58-1.89c1.46-1.26,2.44-3.02,2.92-5.29,.49-2.26,.73-4.92,.73-7.96v-4.56h6.19v4.13c0,4.07-.47,7.67-1.42,10.79-.95,3.13-2.61,5.58-4.99,7.35-2.38,1.78-5.75,2.67-10.1,2.67Z" style="fill: url(&quot;#color-0&quot;);"/><path class="cls-1" d="M304.43,659.82c-4.64,0-8.27-.9-10.88-2.71-2.61-1.81-4.44-4.33-5.5-7.57-1.06-3.24-1.59-6.95-1.59-11.14v-28.9c0-4.24,.56-7.92,1.68-11.05,1.12-3.12,2.98-5.55,5.59-7.27,2.61-1.72,6.18-2.58,10.71-2.58s8.01,.86,10.62,2.58c2.61,1.72,4.46,4.14,5.55,7.27,1.09,3.13,1.63,6.81,1.63,11.05v28.98c0,4.19-.53,7.87-1.59,11.05-1.06,3.18-2.88,5.69-5.46,7.53s-6.16,2.75-10.75,2.75Zm0-5.25c3.04,0,5.36-.62,6.97-1.85,1.6-1.23,2.71-2.95,3.31-5.16s.9-4.77,.9-7.7v-31.56c0-2.92-.3-5.47-.9-7.65s-1.71-3.86-3.31-5.03c-1.61-1.17-3.93-1.76-6.97-1.76s-5.46,.59-7.1,1.76c-1.63,1.18-2.75,2.85-3.35,5.03s-.9,4.73-.9,7.65v31.56c0,2.92,.3,5.49,.9,7.7s1.72,3.93,3.35,5.16c1.63,1.23,4,1.85,7.1,1.85Z" style="fill: url(&quot;#color-0&quot;);"/><path class="cls-1" d="M369.36,670.91l-.6-11.95h-35.78v-69.66h6.62v64.76h22.88v-64.76h6.62v64.76h5.5v16.86h-5.25Z" style="fill: url(&quot;#color-0&quot;);"/><path class="cls-1" d="M382.86,658.96v-69.66h5.85v55.21l22.53-55.21h5.07v69.66h-5.85v-55.47l-22.45,55.47h-5.16Z" style="fill: url(&quot;#color-0&quot;);"/><path class="cls-1" d="M424.65,658.96l14.71-69.66h6.88l14.79,69.66h-6.45l-3.44-18.66h-16.6l-3.53,18.66h-6.36Zm10.84-23.39h14.79l-7.4-37.58-7.4,37.58Z" style="fill: url(&quot;#color-0&quot;);"/><path class="cls-1" d="M505.75,670.91l-.6-11.95h-35.78v-69.66h6.62v64.76h22.88v-64.76h6.62v64.76h5.5v16.86h-5.25Z" style="fill: url(&quot;#color-0&quot;);"/><path class="cls-1" d="M519.25,658.96v-69.66h5.85v55.21l22.53-55.21h5.07v69.66h-5.85v-55.47l-22.45,55.47h-5.16Z" style="fill: url(&quot;#color-0&quot;);"/><path class="cls-1" d="M560.36,658.96l14.19-31.56c-3.38-1.38-5.91-3.74-7.57-7.1-1.66-3.35-2.49-7.38-2.49-12.08,0-3.5,.59-6.67,1.76-9.5,1.17-2.84,3.18-5.12,6.02-6.84s6.69-2.58,11.57-2.58h14.79v69.66h-6.62v-29.84h-8.77c-.34,0-.85-.01-1.5-.04-.66-.03-1.16-.04-1.5-.04l-12.47,29.93h-7.4Zm23.99-34.66h7.65v-30.1h-7.91c-4.24,0-7.51,1.08-9.8,3.22-2.29,2.15-3.44,5.72-3.44,10.71,0,5.39,1.02,9.43,3.05,12.13,2.04,2.7,5.52,4.04,10.45,4.04Z" style="fill: url(&quot;#color-0&quot;);"/><path class="cls-1" d="M623.05,670.91v-16.86h2.75c1.09-.74,2.11-1.58,3.05-2.49,.95-.92,1.81-2.21,2.58-3.87,.77-1.66,1.49-3.94,2.15-6.84,.66-2.89,1.28-6.69,1.85-11.4,.57-4.7,1.09-10.58,1.55-17.63l1.55-22.53h26.23v64.76h5.68v16.86h-5.16l-.6-11.95h-35.86l-.6,11.95h-5.16Zm9.37-16.86h25.8v-59.77h-13.93l-1.29,19.01c-.4,7-.89,12.77-1.46,17.33s-1.18,8.23-1.81,11.01c-.63,2.78-1.33,4.95-2.11,6.49-.77,1.55-1.59,2.74-2.45,3.57-.86,.83-1.78,1.62-2.75,2.36Z" style="fill: url(&quot;#color-0&quot;);"/><path class="cls-1" d="M678.78,658.96v-69.66h6.62v29.24h5.93c4.53,0,8.27,.7,11.22,2.11,2.95,1.41,5.15,3.6,6.58,6.58,1.43,2.98,2.15,6.91,2.15,11.78,0,3.15-.36,5.96-1.08,8.43-.72,2.47-1.88,4.56-3.48,6.28-1.61,1.72-3.65,3.02-6.15,3.91-2.49,.89-5.49,1.33-8.99,1.33h-12.81Zm6.62-4.99h6.19c3.21,0,5.79-.5,7.74-1.5,1.95-1,3.37-2.62,4.26-4.86,.89-2.24,1.33-5.13,1.33-8.69,0-5.04-.98-8.87-2.92-11.48-1.95-2.61-5.42-3.91-10.41-3.91h-6.19v30.44Zm34.23,4.99v-69.66h6.54v69.66h-6.54Z" style="fill: url(&quot;#color-0&quot;);"/><path class="cls-1" d="M737.69,658.96l1.72-69.66h6.54l13.76,60.46,14.02-60.46h6.54l1.72,69.66h-5.42l-1.38-55.47-13.33,55.47h-4.21l-13.16-55.38-1.38,55.38h-5.42Z" style="fill: url(&quot;#color-0&quot;);"/><path class="cls-1" d="M793.59,658.96v-69.66h6.54v30.87h21.93v-30.87h6.54v69.66h-6.54v-33.88h-21.93v33.88h-6.54Z" style="fill: url(&quot;#color-0&quot;);"/><path class="cls-1" d="M857.31,659.82c-4.64,0-8.27-.9-10.88-2.71-2.61-1.81-4.44-4.33-5.5-7.57-1.06-3.24-1.59-6.95-1.59-11.14v-28.9c0-4.24,.56-7.92,1.68-11.05,1.12-3.12,2.98-5.55,5.59-7.27,2.61-1.72,6.18-2.58,10.71-2.58s8.01,.86,10.62,2.58c2.61,1.72,4.46,4.14,5.55,7.27,1.09,3.13,1.63,6.81,1.63,11.05v28.98c0,4.19-.53,7.87-1.59,11.05-1.06,3.18-2.88,5.69-5.46,7.53s-6.16,2.75-10.75,2.75Zm0-5.25c3.04,0,5.36-.62,6.97-1.85,1.6-1.23,2.71-2.95,3.31-5.16,.6-2.21,.9-4.77,.9-7.7v-31.56c0-2.92-.3-5.47-.9-7.65-.6-2.18-1.71-3.86-3.31-5.03-1.61-1.17-3.93-1.76-6.97-1.76s-5.46,.59-7.09,1.76c-1.63,1.18-2.75,2.85-3.35,5.03-.6,2.18-.9,4.73-.9,7.65v31.56c0,2.92,.3,5.49,.9,7.7,.6,2.21,1.72,3.93,3.35,5.16,1.63,1.23,4,1.85,7.09,1.85Z" style="fill: url(&quot;#color-0&quot;);"/><path class="cls-1" d="M885.86,658.96v-69.66h5.85v55.21l22.53-55.21h5.07v69.66h-5.85v-55.47l-22.45,55.47h-5.16Zm17.11-74.99c-3.33,0-5.85-.9-7.57-2.71-1.72-1.81-2.64-4.34-2.75-7.61h4.04c.06,2.29,.64,3.96,1.76,4.99s2.62,1.55,4.51,1.55,3.48-.52,4.6-1.55c1.12-1.03,1.73-2.69,1.85-4.99h3.96c-.06,3.27-.96,5.8-2.71,7.61-1.75,1.81-4.31,2.71-7.7,2.71Z" style="fill: url(&quot;#color-0&quot;);"/><path class="cls-1" d="M161.28,750.96v-69.66h6.62v31.99h4.9l14.28-31.99h6.62l-15.14,33.54,17.46,36.12h-6.62l-16.51-34.14h-4.99v34.14h-6.62Z" style="fill: url(&quot;#color-0&quot;);"/><path class="cls-1" d="M201.53,762.57v-5.07c.46,.06,.93,.1,1.42,.13,.49,.03,1.1,.04,1.85,.04,1.6,0,3-.37,4.17-1.12,1.17-.75,2.14-1.75,2.88-3.01,.74-1.26,1.3-2.64,1.68-4.13,.37-1.49,.56-2.95,.56-4.39,0-.8-.04-1.6-.13-2.41-.09-.8-.19-1.55-.3-2.24l-14.36-59.08h6.36l7.14,31.22,4.64,22.45,4.04-22.45,6.36-31.22h6.36l-13.24,61.15c-.75,3.38-1.52,6.36-2.32,8.94-.8,2.58-1.76,4.72-2.88,6.41-1.12,1.69-2.49,2.97-4.13,3.83s-3.68,1.29-6.15,1.29c-.63,0-1.26-.04-1.89-.13-.63-.09-1.32-.16-2.06-.21Z" style="fill: url(&quot;#color-0&quot;);"/><path class="cls-1" d="M237.13,751.04v-4.99c1.66-.06,3.07-.24,4.21-.56,1.15-.31,2.11-1.02,2.88-2.11,.77-1.09,1.43-2.87,1.98-5.33,.54-2.46,1.06-5.85,1.55-10.15,.49-4.3,.99-9.8,1.5-16.51l2.06-30.1h27.09v69.66h-6.62v-64.67h-14.62l-1.63,25.11c-.52,6.59-1.02,12.2-1.5,16.81-.49,4.62-1.1,8.43-1.85,11.44-.75,3.01-1.73,5.36-2.97,7.05-1.23,1.69-2.82,2.85-4.77,3.48-1.95,.63-4.39,.92-7.31,.86Z" style="fill: url(&quot;#color-0&quot;);"/><path class="cls-1" d="M290.54,750.96v-69.66h6.54v29.24h5.93c4.53,0,8.27,.7,11.22,2.11,2.95,1.41,5.15,3.6,6.58,6.58,1.43,2.98,2.15,6.91,2.15,11.78,0,3.15-.36,5.96-1.07,8.43-.72,2.47-1.88,4.56-3.48,6.28-1.61,1.72-3.66,3.02-6.15,3.91-2.49,.89-5.49,1.33-8.99,1.33h-12.73Zm6.54-4.99h6.28c3.21,0,5.78-.5,7.7-1.5,1.92-1,3.32-2.62,4.21-4.86,.89-2.24,1.33-5.13,1.33-8.69,0-5.04-.98-8.87-2.92-11.48-1.95-2.61-5.42-3.91-10.41-3.91h-6.19v30.44Z" style="fill: url(&quot;#color-0&quot;);"/><path class="cls-1" d="M339.82,750.96v-64.59h-13.16v-5.07h32.51v5.07h-12.81v64.59h-6.54Z" style="fill: url(&quot;#color-0&quot;);"/><path class="cls-1" d="M365.36,762.57v-5.07c.46,.06,.93,.1,1.42,.13,.49,.03,1.1,.04,1.85,.04,1.6,0,3-.37,4.17-1.12,1.17-.75,2.14-1.75,2.88-3.01,.74-1.26,1.3-2.64,1.68-4.13,.37-1.49,.56-2.95,.56-4.39,0-.8-.04-1.6-.13-2.41-.09-.8-.19-1.55-.3-2.24l-14.36-59.08h6.36l7.14,31.22,4.64,22.45,4.04-22.45,6.36-31.22h6.36l-13.24,61.15c-.75,3.38-1.52,6.36-2.32,8.94-.8,2.58-1.76,4.72-2.88,6.41-1.12,1.69-2.49,2.97-4.13,3.83s-3.68,1.29-6.15,1.29c-.63,0-1.26-.04-1.89-.13-.63-.09-1.32-.16-2.06-.21Z" style="fill: url(&quot;#color-0&quot;);"/><path class="cls-1" d="M405.69,750.96v-69.66h16.68c4.18,0,7.48,.77,9.89,2.32,2.41,1.55,4.11,3.7,5.12,6.45,1,2.75,1.5,5.99,1.5,9.72,0,3.27-.53,6.29-1.59,9.07-1.06,2.78-2.81,5-5.25,6.67-2.44,1.66-5.63,2.49-9.59,2.49h-10.23v32.94h-6.54Zm6.54-37.84h8.34c2.81,0,5.09-.42,6.84-1.25,1.75-.83,3.02-2.22,3.83-4.17,.8-1.95,1.2-4.59,1.2-7.91,0-3.55-.34-6.32-1.03-8.3-.69-1.98-1.88-3.35-3.57-4.13-1.69-.77-4.08-1.16-7.18-1.16h-8.43v26.92Z" style="fill: url(&quot;#color-0&quot;);"/><path class="cls-1" d="M447.14,750.96v-69.66h6.62v29.24h5.93c4.53,0,8.27,.7,11.22,2.11,2.95,1.41,5.15,3.6,6.58,6.58,1.43,2.98,2.15,6.91,2.15,11.78,0,3.15-.36,5.96-1.07,8.43-.72,2.47-1.88,4.56-3.48,6.28-1.61,1.72-3.66,3.02-6.15,3.91-2.49,.89-5.49,1.33-8.99,1.33h-12.81Zm6.62-4.99h6.19c3.21,0,5.79-.5,7.74-1.5,1.95-1,3.37-2.62,4.26-4.86,.89-2.24,1.33-5.13,1.33-8.69,0-5.04-.98-8.87-2.92-11.48-1.95-2.61-5.42-3.91-10.41-3.91h-6.19v30.44Zm34.23,4.99v-69.66h6.54v69.66h-6.54Z" style="fill: url(&quot;#color-0&quot;);"/><path class="cls-1" d="M524.11,750.96v-69.66h6.62v31.99h4.9l14.28-31.99h6.62l-15.14,33.54,17.46,36.12h-6.62l-16.51-34.14h-4.99v34.14h-6.62Z" style="fill: url(&quot;#color-0&quot;);"/><path class="cls-1" d="M562.04,750.96l14.71-69.66h6.88l14.79,69.66h-6.45l-3.44-18.66h-16.6l-3.53,18.66h-6.36Zm10.84-23.39h14.79l-7.4-37.58-7.4,37.58Z" style="fill: url(&quot;#color-0&quot;);"/><path class="cls-1" d="M620.08,751.82c-3.61,0-6.57-.7-8.86-2.11-2.29-1.4-3.97-3.37-5.03-5.89-1.06-2.52-1.59-5.5-1.59-8.94v-1.72h6.11v1.98c.06,3.61,.79,6.44,2.19,8.47,1.4,2.04,3.8,3.05,7.18,3.05,2.18,0,4.03-.47,5.55-1.42,1.52-.95,2.67-2.49,3.44-4.64,.77-2.15,1.16-5,1.16-8.56,0-4.24-.88-7.74-2.62-10.49-1.75-2.75-4.83-4.21-9.25-4.39-.12-.06-.46-.09-1.03-.09h-2.75v-4.9h3.61c4.47-.17,7.6-1.42,9.37-3.74,1.78-2.32,2.67-5.8,2.67-10.45,0-3.61-.75-6.56-2.24-8.86-1.49-2.29-4.04-3.44-7.65-3.44s-6.02,.93-7.74,2.8-2.64,4.83-2.75,8.9v1.63h-6.19v-1.63c0-3.44,.57-6.41,1.72-8.9,1.15-2.49,2.94-4.43,5.38-5.81,2.44-1.38,5.55-2.06,9.33-2.06s6.72,.75,9.16,2.24c2.44,1.49,4.27,3.54,5.5,6.15,1.23,2.61,1.85,5.63,1.85,9.07,0,4.82-.95,8.59-2.84,11.31-1.89,2.72-4.3,4.43-7.22,5.12,1.72,.52,3.34,1.43,4.86,2.75,1.52,1.32,2.77,3.18,3.74,5.59,.97,2.41,1.46,5.45,1.46,9.12,0,3.96-.55,7.43-1.63,10.41-1.09,2.98-2.84,5.3-5.25,6.97-2.41,1.66-5.62,2.49-9.63,2.49Z" style="fill: url(&quot;#color-0&quot;);"/><path class="cls-1" d="M642.1,750.96l14.71-69.66h6.88l14.79,69.66h-6.45l-3.44-18.66h-16.6l-3.53,18.66h-6.36Zm10.84-23.39h14.79l-7.4-37.58-7.4,37.58Z" style="fill: url(&quot;#color-0&quot;);"/><path class="cls-1" d="M682,750.96l15.05-36.29-14.88-33.37h6.11l12.47,27.78,11.95-27.78h6.28l-15.39,34.14,15.91,35.52h-6.28l-13.24-29.41-11.7,29.41h-6.28Z" style="fill: url(&quot;#color-0&quot;);"/><path class="cls-1" d="M742.89,751.82c-4.7,0-8.33-.97-10.88-2.92-2.55-1.95-4.31-4.57-5.29-7.87-.98-3.3-1.46-6.95-1.46-10.97v-27.69c0-4.3,.5-8.08,1.51-11.35,1-3.27,2.79-5.82,5.38-7.65,2.58-1.83,6.16-2.75,10.75-2.75,4.18,0,7.47,.8,9.85,2.41,2.38,1.61,4.08,3.88,5.12,6.84,1.03,2.95,1.55,6.46,1.55,10.53v4.21h-6.19v-4.04c0-3.04-.24-5.65-.73-7.83-.49-2.18-1.48-3.87-2.97-5.07-1.49-1.2-3.67-1.81-6.54-1.81-3.15,0-5.52,.64-7.1,1.93-1.58,1.29-2.64,3.11-3.18,5.46-.55,2.35-.82,5.07-.82,8.17v29.67c0,3.44,.33,6.31,.99,8.6,.66,2.29,1.79,4.01,3.4,5.16,1.6,1.15,3.84,1.72,6.71,1.72s5.12-.63,6.58-1.89c1.46-1.26,2.44-3.02,2.92-5.29,.49-2.26,.73-4.92,.73-7.96v-4.56h6.19v4.13c0,4.07-.47,7.67-1.42,10.79-.95,3.13-2.61,5.58-4.99,7.35-2.38,1.78-5.75,2.67-10.1,2.67Z" style="fill: url(&quot;#color-0&quot;);"/><path class="cls-1" d="M778.24,750.96v-64.59h-13.16v-5.07h32.51v5.07h-12.81v64.59h-6.54Z" style="fill: url(&quot;#color-0&quot;);"/><path class="cls-1" d="M798.1,750.96l14.71-69.66h6.88l14.79,69.66h-6.45l-3.44-18.66h-16.6l-3.53,18.66h-6.36Zm10.84-23.39h14.79l-7.4-37.58-7.4,37.58Z" style="fill: url(&quot;#color-0&quot;);"/><path class="cls-1" d="M842.91,750.96v-69.66h6.54v30.87h21.93v-30.87h6.54v69.66h-6.54v-33.88h-21.93v33.88h-6.54Z" style="fill: url(&quot;#color-0&quot;);"/><path class="cls-1" d="M886.34,750.96l14.71-69.66h6.88l14.79,69.66h-6.45l-3.44-18.66h-16.6l-3.53,18.66h-6.36Zm10.84-23.39h14.79l-7.4-37.58-7.4,37.58Z" style="fill: url(&quot;#color-0&quot;);"/></g></svg>