<?xml version="1.0" encoding="utf-8"?>
<svg xmlns="http://www.w3.org/2000/svg" viewBox="650.47 368.9838 205.5009 181.7263" width="205.501px" height="181.726px" xmlns:bx="https://boxy-svg.com" preserveAspectRatio="none"><defs><linearGradient id="color-0" bx:pinned="true" gradientUnits="userSpaceOnUse"><stop style="stop-color: rgb(202, 254, 60);"/></linearGradient><style>
      .cls-1 {
        fill: #1d1d1b;
      }
    </style></defs><path class="cls-1" d="M853.46,483c-.8,0-1.47-.63-1.49-1.43,0,0,0,0,0-.01-1.57-54.07-14.29-82.26-43.9-97.28-35.08-17.79-86.61-14.3-114.87,7.8-18.33,14.33-25.71,49.97-22.25,76.16,2.92,22.06,15.93,40.16,34.82,48.43,16.74,7.32,40.86,8.93,58.66,3.91,18.41-5.2,33.46-17.36,36.6-29.58,4.62-17.94,1.97-38.12-6.73-51.4-7.79-11.88-24.39-17.65-37.4-18.1-12.87-.44-21.61,4.37-29.25,16.09-3.31,5.07-3.98,10.9-3.55,16.16,1.1-3.29,3.11-6.67,6.54-9.74,12.33-11.04,28.29-6.38,34.57-3.87,10.28,4.11,22.39,18.71,13.63,42.06-3.28,8.75-9.7,15.19-18.56,18.61-12.78,4.94-30.33,3.36-44.72-4.03-22.21-11.41-23.2-34.56-21.58-53.45,1.07-12.52,4.96-22.23,11.9-29.69,9.94-10.7,26.1-16.46,48.03-17.14,22.47-.69,40.52,4.77,53.65,16.23,12.81,11.18,16.76,24.61,17.87,29.86,3.75,17.81,8.41,39.98-4.63,69.71-8.11,18.8-29.39,32.2-58.38,36.78-6.94,1.09-14.12,1.63-21.37,1.63-13.24,0-26.69-1.81-39.29-5.36-7.29-2.06-14.16-4.65-20.54-7.72-.03-.01-.06-.02-.09-.04-12.22-5.91-22.62-13.61-30.66-22.77l2.57-2.26c7.63,9.06,17.81,15.61,27.42,20.22,6.85,3.53,14.36,6.45,22.39,8.72,2.09,.59,4.21,1.13,6.35,1.61,17.2,3.96,35.64,4.69,52.6,2.01,27.6-4.35,47.77-16.89,55.33-34.41,12.54-28.57,8.01-50.05,4.38-67.3-1.57-7.46-12.21-44.63-67.48-42.91-35.33,1.09-53.67,15.21-56.07,43.17-2.27,26.57,3.53,41.39,19.42,49.55,13.42,6.89,29.69,8.41,41.45,3.86,7.89-3.04,13.36-8.52,16.27-16.28,8.35-22.28-3.79-33.91-11.37-36.94-5.6-2.24-19.76-6.42-30.43,3.13-10.34,9.26-5.21,21.7-4.99,22.22,.42,.99-.02,2.14-1,2.6-.97,.46-2.13,.06-2.62-.9-.42-.83-10.2-20.47-.4-35.5,8.4-12.88,18.5-18.39,32.75-17.91,14.04,.49,32.04,6.83,40.6,19.9,9.3,14.19,12.15,35.62,7.27,54.6-3.48,13.53-19.68,26.86-39.4,32.42-18.61,5.26-43.83,3.57-61.34-4.09-20.18-8.83-34.08-28.11-37.18-51.57-1.78-13.42-.75-29.17,2.81-43.21,2.92-11.53,8.93-27.23,20.94-36.63,29.36-22.95,82.8-26.63,119.13-8.2,16.81,8.52,28.54,21.49,35.88,39.65,6.21,15.35,9.45,34.76,10.22,61.07,0,0,0,.01,0,.02,.03,.84-.64,1.54-1.48,1.54h-1.03Z" id="object-0" style="fill: url(&quot;#color-0&quot;);"/></svg>